<svg xmlns="http://www.w3.org/2000/svg" viewBox="0 0 800 600" fill="none">
  <!-- 背景元素 -->
  <rect width="800" height="600" fill="#f8f9fa" opacity="0.01"/>
  
  <!-- 主要图形 - 抽象的技术/编码概念 -->
  <g transform="translate(400, 300)">
    <!-- 中央圆形 -->
    <circle cx="0" cy="0" r="150" fill="url(#grad1)" opacity="0.8"/>
    
    <!-- 代码线条 -->
    <g stroke="#6c5ce7" stroke-width="3" opacity="0.7">
      <line x1="-120" y1="-80" x2="120" y2="-80" stroke-dasharray="10,5"/>
      <line x1="-100" y1="-40" x2="140" y2="-40" stroke-dasharray="15,5"/>
      <line x1="-130" y1="0" x2="130" y2="0" stroke-dasharray="5,5"/>
      <line x1="-110" y1="40" x2="150" y2="40" stroke-dasharray="20,5"/>
      <line x1="-140" y1="80" x2="100" y2="80" stroke-dasharray="8,4"/>
    </g>
    
    <!-- 装饰性几何形状 -->
    <rect x="-180" y="-150" width="50" height="50" fill="#0984e3" opacity="0.6" rx="10"/>
    <circle cx="160" cy="-120" r="30" fill="#00b894" opacity="0.6"/>
    <polygon points="0,170 30,130 -30,130" fill="#e84393" opacity="0.6"/>
    <rect x="140" y="100" width="40" height="40" fill="#fdcb6e" opacity="0.6" rx="5"/>
    
    <!-- 连接线 -->
    <g stroke="#a29bfe" stroke-width="2" opacity="0.4">
      <path d="M-150,-120 C-100,-80 -50,-100 0,-60 S 50,-20 100,-40 S 150,-60 180,-20" />
      <path d="M-180,20 C-120,40 -60,20 0,60 S 60,100 120,80 S 180,60 200,100" />
    </g>
    
    <!-- 小圆点 -->
    <g fill="#6c5ce7">
      <circle cx="-150" cy="-120" r="5"/>
      <circle cx="0" cy="-60" r="5"/>
      <circle cx="100" cy="-40" r="5"/>
      <circle cx="180" cy="-20" r="5"/>
      <circle cx="-180" cy="20" r="5"/>
      <circle cx="0" cy="60" r="5"/>
      <circle cx="120" cy="80" r="5"/>
      <circle cx="200" cy="100" r="5"/>
    </g>
  </g>
  
  <!-- 渐变定义 -->
  <defs>
    <linearGradient id="grad1" x1="0%" y1="0%" x2="100%" y2="100%">
      <stop offset="0%" stop-color="#6c5ce7" stop-opacity="0.8"/>
      <stop offset="100%" stop-color="#0984e3" stop-opacity="0.8"/>
    </linearGradient>
  </defs>
</svg>
